<svg xmlns="http://www.w3.org/2000/svg" xmlns:xlink="http://www.w3.org/1999/xlink" contentStyleType="text/css" height="394px" preserveAspectRatio="none" style="width:1129px;height:394px;background:#FFFFFF;" version="1.1" viewBox="0 0 1129 394" width="1129px" zoomAndPan="magnify"><title>Runtime: Thomas posts a message with a mention and a link</title><defs/><g><text fill="#000000" font-family="sans-serif" font-size="14" font-weight="bold" lengthAdjust="spacing" textLength="481.0107" x="323.4802" y="27.9951">Runtime: Thomas posts a message with a mention and a link</text><line style="stroke:#181818;stroke-width:0.5;stroke-dasharray:5.0,5.0;" x1="35" x2="35" y1="118.5938" y2="313.3906"/><line style="stroke:#181818;stroke-width:0.5;stroke-dasharray:5.0,5.0;" x1="416.7256" x2="416.7256" y1="118.5938" y2="313.3906"/><line style="stroke:#181818;stroke-width:0.5;stroke-dasharray:5.0,5.0;" x1="770.2002" x2="770.2002" y1="118.5938" y2="313.3906"/><line style="stroke:#181818;stroke-width:0.5;stroke-dasharray:5.0,5.0;" x1="1029.1694" x2="1029.1694" y1="118.5938" y2="313.3906"/><text fill="#000000" font-family="sans-serif" font-size="14" lengthAdjust="spacing" textLength="55.501" x="5" y="115.292">Thomas</text><ellipse cx="35.7505" cy="50.7969" fill="#E2E2F0" rx="8" ry="8" style="stroke:#181818;stroke-width:0.5;"/><path d="M35.7505,58.7969 L35.7505,85.7969 M22.7505,66.7969 L48.7505,66.7969 M35.7505,85.7969 L22.7505,100.7969 M35.7505,85.7969 L48.7505,100.7969 " fill="none" style="stroke:#181818;stroke-width:0.5;"/><text fill="#000000" font-family="sans-serif" font-size="14" lengthAdjust="spacing" textLength="55.501" x="5" y="325.3857">Thomas</text><ellipse cx="35.7505" cy="337.1875" fill="#E2E2F0" rx="8" ry="8" style="stroke:#181818;stroke-width:0.5;"/><path d="M35.7505,345.1875 L35.7505,372.1875 M22.7505,353.1875 L48.7505,353.1875 M35.7505,372.1875 L22.7505,387.1875 M35.7505,372.1875 L48.7505,387.1875 " fill="none" style="stroke:#181818;stroke-width:0.5;"/><rect fill="#E2E2F0" height="30.2969" rx="2.5" ry="2.5" style="stroke:#181818;stroke-width:0.5;" width="95.5322" x="369.7256" y="87.2969"/><text fill="#000000" font-family="sans-serif" font-size="14" lengthAdjust="spacing" textLength="81.5322" x="376.7256" y="107.292">PostService</text><rect fill="#E2E2F0" height="30.2969" rx="2.5" ry="2.5" style="stroke:#181818;stroke-width:0.5;" width="95.5322" x="369.7256" y="312.3906"/><text fill="#000000" font-family="sans-serif" font-size="14" lengthAdjust="spacing" textLength="81.5322" x="376.7256" y="332.3857">PostService</text><rect fill="#E2E2F0" height="30.2969" rx="2.5" ry="2.5" style="stroke:#181818;stroke-width:0.5;" width="119.7998" x="711.2002" y="87.2969"/><text fill="#000000" font-family="sans-serif" font-size="14" lengthAdjust="spacing" textLength="105.7998" x="718.2002" y="107.292">MessageParser</text><rect fill="#E2E2F0" height="30.2969" rx="2.5" ry="2.5" style="stroke:#181818;stroke-width:0.5;" width="119.7998" x="711.2002" y="312.3906"/><text fill="#000000" font-family="sans-serif" font-size="14" lengthAdjust="spacing" textLength="105.7998" x="718.2002" y="332.3857">MessageParser</text><rect fill="#E2E2F0" height="30.2969" rx="2.5" ry="2.5" style="stroke:#181818;stroke-width:0.5;" width="188.8018" x="935.1694" y="87.2969"/><text fill="#000000" font-family="sans-serif" font-size="14" lengthAdjust="spacing" textLength="174.8018" x="942.1694" y="107.292">InMemoryPostRepository</text><rect fill="#E2E2F0" height="30.2969" rx="2.5" ry="2.5" style="stroke:#181818;stroke-width:0.5;" width="188.8018" x="935.1694" y="312.3906"/><text fill="#000000" font-family="sans-serif" font-size="14" lengthAdjust="spacing" textLength="174.8018" x="942.1694" y="332.3857">InMemoryPostRepository</text><polygon fill="#181818" points="405.4917,145.7266,415.4917,149.7266,405.4917,153.7266,409.4917,149.7266" style="stroke:#181818;stroke-width:1;"/><line style="stroke:#181818;stroke-width:1;" x1="35.7505" x2="411.4917" y1="149.7266" y2="149.7266"/><text fill="#000000" font-family="sans-serif" font-size="13" lengthAdjust="spacing" textLength="357.7412" x="42.7505" y="144.6606">post("thomas", "Hey @alice see https://example.com")</text><polygon fill="#181818" points="759.1001,174.8594,769.1001,178.8594,759.1001,182.8594,763.1001,178.8594" style="stroke:#181818;stroke-width:1;"/><line style="stroke:#181818;stroke-width:1;" x1="417.4917" x2="765.1001" y1="178.8594" y2="178.8594"/><text fill="#000000" font-family="sans-serif" font-size="13" lengthAdjust="spacing" textLength="297.083" x="424.4917" y="173.7935">parse("Hey @alice see https://example.com")</text><polygon fill="#181818" points="428.4917,203.9922,418.4917,207.9922,428.4917,211.9922,424.4917,207.9922" style="stroke:#181818;stroke-width:1;"/><line style="stroke:#181818;stroke-width:1;stroke-dasharray:2.0,2.0;" x1="422.4917" x2="770.1001" y1="207.9922" y2="207.9922"/><text fill="#000000" font-family="sans-serif" font-size="13" lengthAdjust="spacing" textLength="329.6084" x="434.4917" y="202.9263">mentions=["alice"], links=["https://example.com"]</text><polygon fill="#181818" points="1017.5703,233.125,1027.5703,237.125,1017.5703,241.125,1021.5703,237.125" style="stroke:#181818;stroke-width:1;"/><line style="stroke:#181818;stroke-width:1;" x1="417.4917" x2="1023.5703" y1="237.125" y2="237.125"/><text fill="#000000" font-family="sans-serif" font-size="13" lengthAdjust="spacing" textLength="588.0786" x="424.4917" y="232.0591">save(Post(author="thomas", text=..., mentions=["alice"], links=["https://example.com"]))</text><polygon fill="#181818" points="428.4917,262.2578,418.4917,266.2578,428.4917,270.2578,424.4917,266.2578" style="stroke:#181818;stroke-width:1;"/><line style="stroke:#181818;stroke-width:1;stroke-dasharray:2.0,2.0;" x1="422.4917" x2="1028.5703" y1="266.2578" y2="266.2578"/><text fill="#000000" font-family="sans-serif" font-size="13" lengthAdjust="spacing" textLength="15.4819" x="434.4917" y="261.1919">ok</text><polygon fill="#181818" points="46.7505,291.3906,36.7505,295.3906,46.7505,299.3906,42.7505,295.3906" style="stroke:#181818;stroke-width:1;"/><line style="stroke:#181818;stroke-width:1;stroke-dasharray:2.0,2.0;" x1="40.7505" x2="416.4917" y1="295.3906" y2="295.3906"/><text fill="#000000" font-family="sans-serif" font-size="13" lengthAdjust="spacing" textLength="93.6216" x="52.7505" y="290.3247">Post(id=..., ...)</text><!--SRC=[bP0nQyGm38Nt_0hXAO5SRW-aT6o7W4cwbHj4JZJcOZlOkklbtrTnGij1XtOnIDPxtvFOy4JGNHqRIpMyZTvYXDb7Ze1WAKRy8FWqFAPInhm3T6Uf9kCkMOO3-x3hiXa3cy7Cw1YK5fEUmiqCf41CTV_utsxc6aEaa2PQ_JZnwbgoFYohKqSIoWXhsSowBDl37fx4kawPSyMffqfGBxJ0Cqv2XqW48_CSw-EHxcZdYQh1MrLakb_bhHRv6YF_cwhLSDYf-qbYywwIIftAT9YryPluj2DrLqF46-NhRZbU9NTeVj8ptRcfgghyFw2GhRhlVFwIW59jrweX0SrvSvUd-080]--></g></svg>
